<?xml version="1.0" ?><svg enable-background="new -198.874 127.897 470.861 312.252" id="Layer_1" version="1.1" viewBox="-198.874 127.897 470.861 312.252" xml:space="preserve" xmlns="http://www.w3.org/2000/svg" xmlns:xlink="http://www.w3.org/1999/xlink"><g id="Layer_1_1_"/><g><path d="M215.55,281.091c-2.189-1.898-5.094-2.755-7.966-2.345c-7.707,1.101-14.388,1.737-20.424,1.945l-2.392,0.08   c-2.856,0.094-5.756,0.189-8.671,0.344c0.07-2.777,0.156-5.492,0.237-8.057c0.2-6.29,0.501-12.612,0.817-19.075   c0.158-3.221,0.376-6.537,0.586-9.743c0.203-3.088,0.413-6.281,0.576-9.469c0.213-4.164,0.351-8.395,0.484-12.487   c0.076-2.313,0.151-4.629,0.24-6.947c0.208-5.392-3.898-9.976-9.28-10.359c-2.73-0.195-5.535-0.481-8.247-0.758   c-4.108-0.419-8.355-0.852-12.659-1.011c-8.19-0.301-15.713,0.312-23.004,1.874c-0.521,0.111-1.031,0.265-1.528,0.458   c-5.438,2.115-6.816,6.333-7.27,7.718l-0.055,0.169c-0.222,0.559-0.393,1.137-0.511,1.726c-1.378,6.891-2.507,12.644-3.435,18.696   c-0.297,1.937-0.635,3.86-0.993,5.896c-0.748,4.251-1.522,8.646-1.898,13.22c-0.421,5.102-0.307,10.04-0.196,14.816   c0.037,1.579,0.073,3.159,0.09,4.744c0.022,2.215,0.088,4.463,0.193,6.716c-3.711-0.388-7.231-0.567-10.32-0.674   c-7.1-0.248-13.51-0.529-20.064-1.465c-4.563-0.648-8.982,1.9-10.696,6.181c-1.715,4.279-0.282,9.177,3.47,11.856   c2.019,1.441,3.739,4.009,5.731,6.98c2.396,3.574,5.075,7.573,9.15,10.919c3.393,4.944,7.029,9.521,10.557,13.958l1.277,1.608   c3.511,4.422,7.141,8.993,10.879,13.434c1.056,1.253,2.115,2.502,3.175,3.75c2.882,3.396,5.861,6.905,8.636,10.397l0.845,1.062   c3.02,3.796,5.897,7.413,8.531,11.169c0.78,1.924,2.521,4.55,6.371,5.917c1.096,0.389,2.226,0.577,3.344,0.577   c3.022,0,5.956-1.374,7.89-3.854c0.308-0.396,0.582-0.808,0.822-1.234c1.132-1.042,2.272-2.079,3.392-3.096   c2.654-2.412,5.398-4.906,8.063-7.507c3.039-2.965,5.997-6.01,8.857-8.954c1.432-1.473,2.864-2.947,4.306-4.411   c1.526-1.548,3.07-3.081,4.618-4.618c2.826-2.807,5.75-5.709,8.606-8.747c1.49-1.584,3.005-3.155,4.524-4.732   c2.724-2.826,5.538-5.747,8.295-8.822c1.054-1.126,1.764-2.324,2.256-3.404c1.103-0.886,2.062-2.005,2.87-3.354   c0.132-0.219,0.254-0.442,0.368-0.671c0.179-0.357,0.417-0.594,1.597-1.581c1.385-1.16,3.281-2.749,4.938-5.235   c1.482-2.224,2.33-4.15,3.012-5.698c0.498-1.133,0.827-1.882,1.345-2.658c0.801-1.201,1.328-2.556,1.555-3.969   c0.259-0.844,0.553-2.123,0.553-3.72C218.998,285.747,217.74,282.99,215.55,281.091z M187.946,300.969   c-1.952,1.952-2.813,4.178-3.262,5.644c-2.242,2.461-4.593,4.899-6.876,7.269c-1.576,1.636-3.146,3.266-4.691,4.908   c-2.622,2.788-5.423,5.568-8.131,8.258c-1.599,1.587-3.193,3.171-4.771,4.772c-1.477,1.499-2.94,3.006-4.404,4.512   c-2.896,2.98-5.631,5.796-8.48,8.575c-1.622,1.583-3.281,3.127-4.997,4.698c-1.269-1.628-2.54-3.228-3.797-4.807l-0.838-1.054   c-2.976-3.744-6.062-7.38-9.046-10.896c-1.042-1.229-2.085-2.457-3.123-3.69c-3.554-4.22-7.093-8.677-10.515-12.987l-1.284-1.617   c-3.765-4.736-7.321-9.211-10.513-13.996c-0.47-0.704-1.025-1.345-1.654-1.907c5.441,0.252,11.469,0.8,16.965,2.37   c3.221,0.921,6.688,0.167,9.235-2.005c2.549-2.173,3.841-5.477,3.441-8.802c-0.692-5.774-1.092-11.963-1.153-17.893   c-0.018-1.667-0.056-3.334-0.094-5.001c-0.104-4.454-0.201-8.66,0.133-12.71c0.302-3.657,0.963-7.417,1.664-11.396   c0.361-2.054,0.735-4.178,1.065-6.333c0.653-4.263,1.433-8.462,2.348-13.127c4.098-0.543,8.375-0.726,12.948-0.557   c3.424,0.126,6.926,0.469,10.614,0.845c-0.108,3.237-0.228,6.523-0.391,9.709c-0.155,3.043-0.36,6.163-0.559,9.18   c-0.216,3.288-0.438,6.687-0.605,10.074c-0.32,6.554-0.626,12.97-0.831,19.42c-0.19,6.054-0.407,12.916-0.407,19.655   c0,2.899,1.258,5.655,3.448,7.555c2.189,1.898,5.093,2.755,7.966,2.345c5.686-0.813,11.703-1.01,18.074-1.219l2.424-0.081   c0.138-0.005,0.276-0.01,0.415-0.015C188.156,300.764,188.051,300.865,187.946,300.969z"/><path d="M56.186,198.961c-5.146-0.965-10.35-1.245-14.941-1.493l-2.264-0.125c-6.3-0.364-11.492-0.513-16.343-0.484   c-3.315,0.024-6.683,0.015-10.076,0.004c-1.878-0.005-3.764-0.011-5.652-0.011c-2.919,0-5.693,1.276-7.593,3.492   c-6.832,7.971-12.607,14.3-17.657,19.349c-0.76,0.76-1.392,1.637-1.873,2.599c-0.363,0.727-0.935,1.714-1.487,2.668   c-0.347,0.6-0.699,1.208-1.044,1.825c-2.398,2.143-4.335,4.364-6.082,6.366c-1.813,2.079-3.379,3.874-5.179,5.314   c-0.288,0.23-0.563,0.477-0.824,0.737c-0.851,0.852-1.635,1.728-2.366,2.599c-1.032-1.259-2.067-2.629-3.154-4.068   c-1.263-1.671-2.568-3.399-3.996-5.112c-1.811-2.174-3.649-4.225-5.427-6.209c-1.626-1.814-3.163-3.529-4.62-5.266l-1.216-1.448   c-2.872-3.418-5.584-6.646-8.118-9.98c-1.877-2.471-3.591-5.355-5.406-8.41c-0.744-1.253-1.488-2.505-2.249-3.74   c-1.558-2.53-4.16-4.236-7.101-4.657c-7.408-1.059-15.212-1.524-23.185-1.388c-7.704,0.132-15.331,0.638-21.893,1.106   c-3.521,0.169-7.209,1.997-9.152,5.731c-1.41,1.625-2.279,3.685-2.426,5.891c-0.221,3.328-0.233,6.582-0.245,9.729   c-0.01,2.625-0.019,5.104-0.145,7.512c-0.129,2.477-0.371,4.984-0.626,7.638c-0.293,3.044-0.596,6.192-0.734,9.43   c-0.135,3.154-0.223,6.325-0.307,9.393c-0.07,2.555-0.14,5.111-0.238,7.667c-0.112,2.922-0.16,5.843-0.207,8.668   c-0.047,2.88-0.092,5.601-0.199,8.347c-0.123,3.186-0.285,6.372-0.446,9.562c-0.125,2.463-0.25,4.928-0.358,7.394   c-0.118,2.676-0.394,5.408-0.686,8.302c-0.279,2.77-0.568,5.633-0.726,8.574c-0.164,3.033-0.121,5.96-0.08,8.79   c0.042,2.856,0.082,5.555-0.093,8.117c-0.211,3.098-0.541,6.197-0.89,9.479c-0.252,2.369-0.513,4.819-0.727,7.285   c-0.025,0.288-0.038,0.576-0.038,0.865l0.001,0.752c0.007,3.257-0.026,5.028-0.807,6.591c-1.497,2.994-1.396,6.538,0.268,9.443   c1.665,2.904,4.672,4.783,8.012,5.006c5.992,0.4,11.453,0.212,16.008-0.024c4.578-0.238,9.344-0.263,14.167-0.074   c3.718,0.146,8.063,0.476,12.097,1.82c3.107,1.037,6.524,0.484,9.148-1.476s4.121-5.081,4.009-8.354   c-0.169-4.925-0.209-10.383-0.124-17.177c0.049-3.915,0.24-7.817,0.441-11.948c0.087-1.782,0.174-3.566,0.25-5.353   c0.128-3.04,0.092-6.004,0.057-8.87c-0.037-3.021-0.071-5.873,0.082-8.629c0.143-2.562,0.481-5.211,0.84-8.016   c0.219-1.714,0.442-3.46,0.627-5.245c2.373,3.082,4.504,5.953,6.513,8.771c3.788,5.317,6.834,10.313,9.313,15.271   c0.237,0.475,0.512,0.93,0.821,1.36c0.803,1.118,1.741,2.046,2.808,2.779c1.977,3.409,3.521,6.404,5.002,10.108   c1.78,4.451,6.471,7.012,11.176,6.105c4.559-0.878,7.894-4.77,8.099-9.369c2.776-4.543,5.135-8.066,7.524-11.247   c0.713-0.949,1.418-1.9,2.122-2.851c2.563-3.458,4.984-6.726,7.603-9.615c1.976-2.182,4.035-4.31,6.285-6.547   c-0.099,2.827-0.149,5.67-0.153,8.51c-0.182,3.315-0.323,6.601-0.463,9.864c-0.109,2.538-0.217,5.063-0.345,7.578   c-0.125,2.467-0.358,4.954-0.605,7.587c-0.31,3.3-0.63,6.712-0.741,10.242c-0.15,4.744-0.138,9.524-0.126,14.148l0.006,3.825   c0,5.012,3.71,9.249,8.678,9.912c4.964,0.662,10.261,1.336,15.642,1.656c4.855,0.289,9.683,0.359,14.352,0.427l1.121,0.017   c2.566,0.036,5.11,0.002,7.589-0.042c1.724,1.301,3.836,2.02,6.026,2.02c2.988,0,6.621-1.32,8.929-4.856   c0.401-0.43,0.766-0.896,1.089-1.396c1.145-1.77,2.273-4.701,1.156-8.614c-0.198-0.693-0.466-1.352-0.795-1.968   c0.032-0.907,0.061-1.809,0.09-2.7c0.096-2.983,0.186-5.801,0.388-8.613c0.208-2.897,0.51-5.788,0.83-8.849   c0.341-3.263,0.693-6.638,0.927-10.06c0.233-3.429,0.263-6.779,0.291-10.02c0.026-3.115,0.052-6.059,0.251-8.929   c0.213-3.086,0.54-6.167,0.888-9.43c0.324-3.048,0.659-6.2,0.896-9.39l0.291-3.948c0.357-4.877,0.728-9.921,1.141-14.85   c0.292-3.473,0.687-6.91,1.104-10.548c0.306-2.658,0.621-5.407,0.891-8.158c0.475-4.849,1.061-9.814,1.627-14.616l0.486-4.139   c0.723-6.198,1.471-12.606,2.324-18.705C64.987,204.885,61.437,199.946,56.186,198.961z M42.057,226.563l-0.483,4.113   c-0.578,4.898-1.176,9.964-1.669,15.009c-0.253,2.583-0.56,5.248-0.855,7.825c-0.417,3.628-0.848,7.38-1.165,11.16   c-0.422,5.033-0.796,10.129-1.157,15.057l-0.29,3.93c-0.213,2.871-0.518,5.729-0.839,8.756c-0.352,3.3-0.715,6.712-0.953,10.166   c-0.24,3.472-0.27,6.859-0.298,10.136c-0.026,3.084-0.052,5.997-0.244,8.831c-0.209,3.062-0.528,6.111-0.866,9.341   c-0.322,3.084-0.655,6.273-0.887,9.495c-0.186,2.582-0.287,5.127-0.371,7.61c-1.298,0.012-2.58,0.013-3.858-0.005l-1.125-0.017   c-4.653-0.067-9.047-0.131-13.454-0.394c-1.823-0.108-3.671-0.269-5.52-0.459c0.005-2.873,0.033-5.681,0.122-8.487   c0.092-2.91,0.37-5.87,0.664-9.004c0.256-2.728,0.521-5.549,0.667-8.443c0.13-2.566,0.241-5.143,0.352-7.732   c0.141-3.271,0.282-6.564,0.466-9.889c0.01-0.185,0.016-0.369,0.016-0.555c0-5.179,0.173-10.368,0.515-15.426   c0.31-4.595,0.719-9.437,1.994-13.686c0.909-3.028,0.332-6.307-1.555-8.843c-1.83-2.459-4.683-3.939-7.736-4.027   c-1.197-0.125-4.522-0.412-8.11,2.149c-0.28,0.2-0.549,0.414-0.807,0.641c-1.599,1.411-3.254,2.764-5.007,4.196   c-2.642,2.159-5.373,4.391-8.005,6.919c-4.649,4.467-8.51,8.286-12.242,12.405c-3.279,3.62-6.111,7.441-8.85,11.136   c-0.678,0.915-1.356,1.831-2.044,2.746c-0.482,0.642-0.961,1.292-1.44,1.956c-0.474-0.503-0.982-0.956-1.523-1.356   c-2.659-4.983-5.785-9.982-9.502-15.201c-3.526-4.948-7.375-10.01-12.112-15.933c-0.23-0.288-0.477-0.563-0.738-0.824   c-0.709-0.709-1.389-1.42-2.06-2.121c-3.479-3.633-7.422-7.752-13.483-10.176c-3.023-1.209-6.447-0.872-9.177,0.909   c-2.728,1.779-4.419,4.776-4.531,8.031c-0.093,2.688-0.108,5.392-0.123,8.008c-0.019,3.334-0.037,6.484-0.202,9.568   c-0.137,2.572-0.479,5.247-0.841,8.08c-0.388,3.03-0.788,6.164-0.97,9.441c-0.191,3.432-0.151,6.762-0.112,9.982   c0.033,2.719,0.064,5.287-0.041,7.785c-0.073,1.741-0.158,3.481-0.243,5.22c-0.201,4.127-0.41,8.396-0.463,12.673   c-0.025,2.002-0.04,3.896-0.044,5.701c-1.497-0.121-2.937-0.195-4.306-0.249c-5.426-0.212-10.805-0.185-15.988,0.086   c-0.786,0.04-1.601,0.08-2.442,0.113c0.001-0.407,0-0.808,0-1.199l0-0.277c0.19-2.126,0.415-4.237,0.652-6.465   c0.354-3.323,0.719-6.76,0.956-10.235c0.231-3.39,0.184-6.634,0.138-9.771c-0.038-2.608-0.074-5.071,0.053-7.422   c0.133-2.477,0.386-4.985,0.654-7.643c0.307-3.042,0.624-6.188,0.767-9.432c0.106-2.421,0.229-4.841,0.352-7.258   c0.166-3.27,0.331-6.537,0.458-9.8c0.115-2.968,0.164-5.929,0.211-8.792c0.046-2.843,0.091-5.528,0.194-8.231   c0.101-2.628,0.173-5.257,0.245-7.884c0.082-2.991,0.167-6.084,0.296-9.084c0.116-2.708,0.381-5.459,0.661-8.372   c0.265-2.751,0.538-5.597,0.69-8.51c0.151-2.892,0.162-5.734,0.171-8.482c0.002-0.651,0.005-1.295,0.009-1.931   c4.516-0.282,9.305-0.52,14.05-0.601c5.26-0.089,10.406,0.119,15.365,0.623c1.907,3.207,3.897,6.502,6.308,9.675   c2.831,3.725,5.83,7.293,8.73,10.745l1.204,1.433c1.668,1.989,3.388,3.908,5.05,5.763c1.736,1.937,3.376,3.767,4.956,5.663   c1.123,1.348,2.23,2.814,3.404,4.366c3.908,5.171,8.336,11.033,15.332,15.031c3.916,2.237,8.844,1.578,12.033-1.612   c1.967-1.967,3.577-4.07,4.997-5.925c1.031-1.348,2.011-2.627,2.95-3.623c2.947-2.441,5.221-5.048,7.241-7.364   c1.813-2.079,3.379-3.874,5.179-5.314c1.13-0.904,2.05-2.042,2.697-3.336c0.363-0.727,0.935-1.714,1.487-2.668   c0.421-0.729,0.852-1.472,1.266-2.225c4.403-4.461,9.126-9.601,14.605-15.896c0.341,0.001,0.683,0.002,1.024,0.003   c3.46,0.01,6.896,0.02,10.278-0.004c4.407-0.032,9.185,0.111,15.041,0.451l2.347,0.129c0.978,0.053,1.963,0.105,2.948,0.166   C42.751,220.61,42.401,223.611,42.057,226.563z"/><path d="M271.721,175.709c-1.725-7.327-4.335-13.835-7.762-19.345c-3.539-5.689-8.584-10.868-14.996-15.39   c-5.721-4.035-11.841-6.519-18.234-7.408c-1.357-0.547-2.833-0.796-4.333-0.708c-2.303,0.137-4.603,0.298-6.901,0.459   c-3.734,0.262-7.262,0.509-10.823,0.658l-4.363,0.188c-4.409,0.192-8.968,0.391-13.404,0.506c-3.498,0.09-7.116,0.095-10.615,0.1   c-2.395,0.003-4.789,0.007-7.181,0.035c-2.429,0.028-4.856,0.081-7.283,0.133c-3.47,0.075-7.095,0.141-10.53,0.15   c-2.877-0.002-5.804-0.166-8.902-0.339c-2.887-0.162-5.873-0.329-8.923-0.364c-2.419-0.027-4.837-0.037-7.254-0.046   c-3.485-0.014-7.088-0.027-10.594-0.099c-3.232-0.064-6.565-0.195-9.788-0.32c-2.688-0.105-5.377-0.209-8.068-0.282   c-2.89-0.078-5.783-0.103-8.581-0.127c-3.209-0.028-6.239-0.055-9.302-0.153c-3.193-0.102-6.316-0.043-9.336,0.013   c-2.987,0.056-5.813,0.109-8.579,0.011c-2.756-0.097-5.552-0.339-8.512-0.596c-3.029-0.262-6.162-0.534-9.377-0.652   c-2.926-0.107-5.852-0.239-8.777-0.372c-3.048-0.138-6.096-0.275-9.146-0.386c-3.232-0.117-6.422-0.107-9.507-0.095   c-2.932,0.009-5.702,0.02-8.456-0.073c-3.305-0.112-6.631-0.177-9.849-0.24c-2.708-0.053-5.416-0.106-8.125-0.187   c-2.676-0.08-5.439-0.208-8.112-0.331c-3.182-0.147-6.471-0.299-9.767-0.38c-2.988-0.132-5.973-0.224-8.954-0.315   c-2.624-0.081-5.245-0.161-7.862-0.27c-2.416-0.101-4.827-0.232-7.238-0.362c-3.171-0.172-6.45-0.349-9.728-0.459   c-5.76-0.192-11.398-0.374-17.035-0.481c-1.563-0.03-3.126-0.065-4.69-0.101c-4.045-0.092-8.234-0.195-12.405-0.184l-1.967,0   c-4.954,0-10.076,0-15.188,0.134c-3.574,0.092-7.044,0.404-10.4,0.706c-2.345,0.211-4.56,0.41-6.764,0.534   c-2.175,0.123-4.446,0.116-6.85,0.115c-3.337-0.005-6.794-0.012-10.415,0.319c-3.618,0.33-7.069,0.946-10.406,1.541   c-2.257,0.403-4.394,0.784-6.499,1.065c-8.262,0.742-16.179,4.032-22.319,9.282c-6.804,5.82-11.102,13.326-12.435,21.719   c-1.065,5.736-1.475,11.314-1.833,16.999l-0.169,2.652c-0.29,4.483-0.589,9.118-0.686,13.792   c-0.094,4.536-0.378,9.038-0.679,13.804l-0.113,1.798c-0.005,0.084-0.01,0.169-0.013,0.253c-0.14,3.782-0.152,7.572-0.164,11.237   c-0.006,1.808-0.011,3.618-0.033,5.429c-0.026,2.233-0.098,4.46-0.175,6.818c-0.103,3.163-0.209,6.433-0.195,9.746   c0.014,3.208,0.28,6.26,0.536,9.211c0.222,2.554,0.432,4.965,0.458,7.258c0.029,2.492-0.078,5.042-0.192,7.742   c-0.118,2.795-0.239,5.686-0.209,8.65c0.036,3.462,0.02,7,0.003,10.422c-0.009,1.903-0.018,3.803-0.018,5.698   c-0.122,3.635-0.141,7.257-0.159,10.761c-0.012,2.281-0.023,4.563-0.064,6.846c-0.08,4.478-0.045,8.976-0.012,13.325   c0.012,1.504,0.023,3.009,0.03,4.516c0.011,2.326-0.061,4.678-0.136,7.167c-0.105,3.466-0.215,7.05-0.097,10.737   c0.119,3.697,0.49,7.279,0.849,10.743c0.257,2.479,0.499,4.82,0.648,7.146c0.299,4.665,0.782,9.326,1.249,13.834   c0.14,1.349,0.28,2.7,0.416,4.056l0.024,0.241c0.499,4.988,1.015,10.146,2.268,15.226c1.659,6.718,3.955,11.788,7.443,16.441   c0.284,0.379,0.595,0.737,0.93,1.072c0.625,0.624,1.084,1.049,1.545,1.472c0.043,0.04,0.087,0.08,0.13,0.12   c6.228,9.815,15.723,13.488,22.442,15.408c1.112,0.318,2.272,0.441,3.425,0.361c2.431-0.165,4.867-0.365,7.304-0.565   c3.683-0.304,7.162-0.59,10.645-0.759c4.484-0.218,9.092-0.349,13.549-0.475l4.393-0.128c3.531-0.108,7.029-0.118,10.732-0.129   c2.412-0.008,4.823-0.015,7.235-0.05c1.853-0.027,3.706-0.061,5.558-0.095c4.085-0.074,8.311-0.15,12.424-0.151   c3.055-0.001,6.049-0.134,8.945-0.262c3.156-0.141,6.134-0.272,9.063-0.237c3.43,0.042,6.97,0.161,10.393,0.275   c2.543,0.085,5.086,0.17,7.628,0.228c3.38,0.077,6.864,0.226,10.234,0.369c2.598,0.111,5.196,0.222,7.794,0.305   c3.311,0.105,6.72,0.272,10.016,0.435c2.676,0.131,5.353,0.262,8.03,0.365c3.155,0.122,6.257,0.104,9.258,0.086   c3.073-0.018,5.973-0.034,8.831,0.091c4.475,0.196,8.95,0.41,13.425,0.623l4.655,0.222c3.12,0.146,6.238,0.324,9.357,0.502   c2.91,0.165,5.82,0.331,8.731,0.473c2.883,0.141,5.74,0.351,8.765,0.573c3.036,0.223,6.176,0.454,9.33,0.606   c3.459,0.167,6.92,0.318,10.381,0.469c2.584,0.112,5.168,0.225,7.752,0.344c2.758,0.128,5.518,0.352,8.439,0.588   c3.145,0.255,6.396,0.519,9.694,0.657c3.412,0.146,6.725,0.068,9.931-0.002c2.891-0.065,5.62-0.126,8.273-0.03   c2.696,0.099,5.394,0.285,8.25,0.483c3.22,0.224,6.549,0.454,9.93,0.552c3.425,0.098,6.784,0.026,10.033-0.041   c2.845-0.06,5.532-0.114,8.193-0.064c2.603,0.032,5.288,0.135,8.131,0.283c2.945,0.153,5.978,0.313,9.104,0.313   c0.453,0,0.908-0.004,1.365-0.011l5.608-0.081c4.225-0.06,8.46-0.119,12.693-0.205c3.266-0.066,6.438-0.309,9.507-0.543   c3.031-0.231,5.894-0.449,8.681-0.492c5.885-0.091,11.676-0.099,18.093-0.099c0.196,0,0.392-0.006,0.588-0.018   c5.666-0.333,14.086-1.677,22.021-6.184c6.801-3.864,12.484-9.778,16.437-17.101c4.135-7.66,5.141-15.518,3.001-23.391   c0.355-3.581,0.606-7.137,0.851-10.594c0.131-1.845,0.261-3.688,0.406-5.523c0.386-4.849,0.633-9.702,0.872-14.395l0.195-3.763   c0.131-2.475,0.396-4.997,0.676-7.667c0.353-3.356,0.717-6.826,0.831-10.431c0.113-3.601,0.098-7.171,0.082-10.624   c-0.012-2.58-0.022-5.017,0.017-7.474c0.053-3.41-0.036-6.77-0.122-10.019c-0.073-2.777-0.143-5.4-0.129-8.022   c0.013-2.594,0.047-5.188,0.08-7.781c0.044-3.399,0.088-6.8,0.088-10.2c0-2.991,0.024-5.983,0.05-8.975   c0.024-2.985,0.049-5.971,0.05-8.954c0.001-2.92,0.114-5.849,0.233-8.95c0.111-2.899,0.228-5.896,0.246-8.926l0.024-4.799   c0.019-4.277,0.038-8.699,0.114-13.021c0.051-2.871,0-5.705-0.048-8.446c-0.058-3.244-0.112-6.308-0.009-9.33   c0.124-3.621,0.365-7.22,0.621-11.031c0.149-2.219,0.298-4.439,0.423-6.659c0.26-4.612,0.665-9.375,1.057-13.981l0.308-3.633   C272.039,177.784,271.961,176.731,271.721,175.709z M251.717,180.767c-0.403,4.746-0.821,9.653-1.098,14.553   c-0.121,2.149-0.265,4.297-0.409,6.444c-0.255,3.804-0.52,7.737-0.654,11.686c-0.121,3.542-0.06,7.013,0,10.37   c0.048,2.686,0.093,5.223,0.049,7.74c-0.079,4.452-0.099,8.941-0.118,13.282l-0.024,4.764c-0.017,2.707-0.121,5.415-0.231,8.281   c-0.121,3.151-0.246,6.409-0.248,9.71c-0.001,2.933-0.025,5.865-0.05,8.797c-0.024,3.047-0.05,6.093-0.05,9.14   c0,3.314-0.043,6.628-0.086,9.941c-0.034,2.646-0.068,5.292-0.082,7.937c-0.016,2.938,0.062,5.844,0.136,8.654   c0.084,3.183,0.164,6.189,0.117,9.178c-0.041,2.656-0.029,5.31-0.019,7.875c0.016,3.427,0.03,6.664-0.072,9.904   c-0.091,2.873-0.401,5.836-0.731,8.972c-0.294,2.807-0.6,5.708-0.758,8.698l-0.196,3.802c-0.232,4.554-0.473,9.263-0.836,13.833   c-0.15,1.895-0.284,3.793-0.419,5.694c-0.291,4.114-0.565,7.999-0.997,11.888c-0.166,1.488,0.005,2.995,0.5,4.408   c1.151,3.29,0.852,6.161-1.004,9.6c-2.138,3.96-5.233,7.231-8.716,9.21c-3.512,1.994-8.134,3.266-13.041,3.591   c-6.379,0-12.159,0.009-18.09,0.101c-3.395,0.053-6.698,0.305-9.893,0.549c-2.924,0.223-5.686,0.434-8.393,0.488   c-4.192,0.085-8.385,0.145-12.567,0.203l-5.638,0.081c-2.927,0.049-5.938-0.111-9.117-0.276c-2.874-0.15-5.847-0.305-8.879-0.309   c-3.035-0.056-6.021,0.007-8.908,0.067c-3.141,0.065-6.108,0.129-9.037,0.044c-2.976-0.085-5.961-0.292-9.122-0.512   c-2.891-0.2-5.881-0.407-8.906-0.518c-3.244-0.118-6.398-0.048-9.449,0.021c-3.019,0.067-5.871,0.131-8.64,0.015   c-2.912-0.122-5.831-0.359-8.921-0.609c-2.963-0.24-6.026-0.488-9.131-0.632c-2.603-0.12-5.205-0.233-7.808-0.347   c-3.428-0.149-6.855-0.298-10.282-0.464c-2.904-0.141-5.782-0.353-8.829-0.576c-3.014-0.222-6.13-0.451-9.26-0.604   c-2.856-0.139-5.713-0.302-8.568-0.464c-3.184-0.182-6.368-0.362-9.552-0.513l-4.644-0.221c-4.501-0.214-9.001-0.429-13.5-0.626   c-3.354-0.147-6.643-0.13-9.826-0.109c-2.91,0.015-5.657,0.032-8.368-0.071c-2.608-0.102-5.215-0.229-7.822-0.357   c-3.38-0.166-6.876-0.337-10.359-0.448c-2.527-0.08-5.053-0.188-7.58-0.296c-3.467-0.147-7.052-0.301-10.63-0.382   c-2.472-0.057-4.943-0.14-7.416-0.223c-3.528-0.117-7.175-0.239-10.818-0.284c-3.494-0.045-6.897,0.109-10.192,0.255   c-2.803,0.124-5.451,0.241-8.064,0.242c-4.292,0.001-8.608,0.079-12.782,0.154c-1.829,0.034-3.658,0.067-5.487,0.094   c-2.333,0.034-4.667,0.041-7.001,0.048c-3.677,0.011-7.478,0.021-11.285,0.139l-4.349,0.126c-4.555,0.13-9.266,0.263-13.949,0.49   c-3.819,0.185-7.632,0.499-11.318,0.803c-1.736,0.143-3.473,0.286-5.207,0.415c-5.092-1.656-7.897-3.679-9.769-6.955   c-0.441-0.772-0.983-1.481-1.611-2.11c-0.625-0.624-1.084-1.049-1.545-1.472c-0.134-0.123-0.269-0.246-0.414-0.383   c-1.598-2.299-2.695-4.938-3.615-8.665c-0.912-3.694-1.316-7.739-1.785-12.423l-0.024-0.242c-0.138-1.378-0.28-2.753-0.422-4.125   c-0.467-4.515-0.909-8.779-1.183-13.052c-0.174-2.717-0.448-5.366-0.713-7.929c-0.338-3.259-0.657-6.337-0.752-9.323   c-0.098-3.063-0.003-6.185,0.098-9.488c0.077-2.552,0.158-5.191,0.146-7.867c-0.007-1.526-0.019-3.052-0.03-4.576   c-0.032-4.225-0.065-8.594,0.01-12.818c0.042-2.366,0.054-4.731,0.066-7.097c0.019-3.574,0.036-6.95,0.153-10.351   c0.004-0.115,0.006-0.229,0.006-0.345c0-1.921,0.009-3.846,0.018-5.774c0.016-3.495,0.033-7.109-0.004-10.721   c-0.025-2.44,0.081-4.948,0.192-7.602c0.12-2.845,0.244-5.787,0.208-8.817c-0.036-3.044-0.289-5.948-0.533-8.757   c-0.232-2.665-0.451-5.183-0.461-7.566c-0.013-2.944,0.083-5.89,0.184-9.008c0.077-2.357,0.156-4.794,0.185-7.237   c0.021-1.867,0.027-3.734,0.034-5.598c0.011-3.615,0.022-7.033,0.146-10.436l0.104-1.655c0.301-4.765,0.612-9.692,0.715-14.65   c0.087-4.237,0.36-8.454,0.648-12.918l0.172-2.686c0.332-5.283,0.679-10.037,1.557-14.718c0.02-0.107,0.039-0.215,0.055-0.323   c0.712-4.628,3.49-7.847,5.693-9.731c3.039-2.598,7.03-4.222,11.238-4.573c0.154-0.013,0.309-0.029,0.462-0.049   c2.636-0.344,5.175-0.797,7.631-1.235c3.058-0.545,5.946-1.061,8.712-1.313c2.696-0.246,5.542-0.242,8.563-0.236   c2.584,0.003,5.254,0.009,8.009-0.146c2.538-0.143,5.024-0.367,7.429-0.583c3.184-0.286,6.191-0.556,9.128-0.632   c4.855-0.126,9.845-0.127,14.671-0.127l1.979,0c3.964-0.009,8.009,0.089,11.938,0.179c1.587,0.036,3.174,0.072,4.761,0.103   c5.506,0.105,11.065,0.285,16.75,0.475c3.07,0.103,6.244,0.274,9.314,0.44c2.492,0.135,4.985,0.27,7.482,0.374   c2.692,0.113,5.387,0.195,8.084,0.278c2.923,0.09,5.851,0.179,8.78,0.31c0.068,0.003,0.137,0.005,0.205,0.007   c3.107,0.074,6.318,0.223,9.424,0.367c2.753,0.127,5.6,0.259,8.441,0.344c2.776,0.083,5.553,0.137,8.328,0.191   c3.147,0.062,6.401,0.125,9.564,0.232c3.128,0.105,6.216,0.093,9.202,0.084c3.024-0.011,5.877-0.021,8.714,0.082   c2.99,0.108,5.978,0.243,8.965,0.378c2.984,0.135,5.968,0.27,8.948,0.378c2.716,0.1,5.469,0.338,8.383,0.591   c3.081,0.267,6.268,0.543,9.534,0.658c3.305,0.117,6.533,0.056,9.657-0.002c2.897-0.054,5.636-0.104,8.321-0.02   c3.294,0.105,6.585,0.134,9.768,0.162c2.709,0.023,5.51,0.048,8.218,0.121c2.61,0.07,5.219,0.172,7.827,0.274   c3.315,0.129,6.745,0.263,10.165,0.332c3.667,0.074,7.353,0.088,10.918,0.103c2.369,0.009,4.738,0.018,7.105,0.045   c2.604,0.03,5.24,0.177,8.032,0.333c3.233,0.181,6.577,0.368,10.006,0.37c3.709-0.005,7.396-0.077,10.976-0.155   c2.361-0.051,4.723-0.102,7.085-0.129c2.324-0.027,4.648-0.03,6.974-0.034c3.619-0.004,7.362-0.01,11.106-0.106   c4.613-0.12,9.262-0.322,13.758-0.519l4.329-0.186c3.842-0.161,7.676-0.43,11.384-0.689c1.302-0.091,2.604-0.182,3.907-0.269   c0.485,0.109,0.981,0.182,1.484,0.217c0.047,0.003,0.093,0.006,0.14,0.008c3.805,0.211,7.407,1.55,11.013,4.093   c4.213,2.972,7.423,6.205,9.54,9.609c2.057,3.307,3.704,7.297,4.907,11.878L251.717,180.767z"/></g></svg>