<!DOCTYPE svg [<!ENTITY nbsp "&#160;">]><svg version="1.1" id="mscgenjs1f45c23c-8c4c-47cf-b4d3-367c7e8428ac" class="mscgenjs1f45c23c-8c4c-47cf-b4d3-367c7e8428ac" xmlns="http://www.w3.org/2000/svg" xmlns:xlink="http://www.w3.org/1999/xlink" width="976" height="644.3599853515625" viewBox="0 0 976 644.3599853515625"><desc>

# Generated by mscgen_js - https://sverweij.github.io/mscgen_js
msc {
  hscale = "2";

  a,b,c;

  a-&gt;b [ label = "ab()" ] ;
  b-&gt;c [ label = "bc(TRUE)"];
  c=&gt;c [ label = "process(1)" ];
  c=&gt;c [ label = "process(2)" ];
  ...;
  c=&gt;c [ label = "process(n)" ];
  c=&gt;c [ label = "process(END)" ];
  a&lt;&lt;=c [ label = "callback()"];
  ---  [ label = "If more to run", ID="*" ];
  a-&gt;a [ label = "next()"];
  a-&gt;c [ label = "ac1()\nac2()"];
  b&lt;-c [ label = "cb(TRUE)"];
  b-&gt;b [ label = "stalled(...)"];
  a&lt;-b [ label = "ab() = FALSE"];
}
</desc><defs><style type="text/css">svg.mscgenjs1f45c23c-8c4c-47cf-b4d3-367c7e8428ac{font-family:Helvetica,sans-serif;font-size:12px;font-weight:normal;font-style:normal;text-decoration:none;background-color:white;stroke:black;stroke-width:2}.mscgenjs1f45c23c-8c4c-47cf-b4d3-367c7e8428ac path, .mscgenjs1f45c23c-8c4c-47cf-b4d3-367c7e8428ac rect{fill:none}.mscgenjs1f45c23c-8c4c-47cf-b4d3-367c7e8428ac .label-text-background{fill:white;stroke:white;stroke-width:0}.mscgenjs1f45c23c-8c4c-47cf-b4d3-367c7e8428ac .bglayer{fill:white;stroke:white;stroke-width:0}.mscgenjs1f45c23c-8c4c-47cf-b4d3-367c7e8428ac line{}.mscgenjs1f45c23c-8c4c-47cf-b4d3-367c7e8428ac .return, .mscgenjs1f45c23c-8c4c-47cf-b4d3-367c7e8428ac .comment{stroke-dasharray:5,3}.mscgenjs1f45c23c-8c4c-47cf-b4d3-367c7e8428ac .inline_expression_divider{stroke-dasharray:10,5}.mscgenjs1f45c23c-8c4c-47cf-b4d3-367c7e8428ac text{color:inherit;stroke:none;text-anchor:middle}.mscgenjs1f45c23c-8c4c-47cf-b4d3-367c7e8428ac text.anchor-start{text-anchor:start}.mscgenjs1f45c23c-8c4c-47cf-b4d3-367c7e8428ac .arrow-marker{overflow:visible}.mscgenjs1f45c23c-8c4c-47cf-b4d3-367c7e8428ac .arrow-style{stroke-width:1}.mscgenjs1f45c23c-8c4c-47cf-b4d3-367c7e8428ac .arcrow, .mscgenjs1f45c23c-8c4c-47cf-b4d3-367c7e8428ac .arcrowomit, .mscgenjs1f45c23c-8c4c-47cf-b4d3-367c7e8428ac .emphasised{stroke-linecap:butt}.mscgenjs1f45c23c-8c4c-47cf-b4d3-367c7e8428ac .arcrowomit{stroke-dasharray:2,2}.mscgenjs1f45c23c-8c4c-47cf-b4d3-367c7e8428ac .box, .mscgenjs1f45c23c-8c4c-47cf-b4d3-367c7e8428ac .entity{fill:white;stroke-linejoin:round}.mscgenjs1f45c23c-8c4c-47cf-b4d3-367c7e8428ac .inherit{stroke:inherit;color:inherit}.mscgenjs1f45c23c-8c4c-47cf-b4d3-367c7e8428ac .inherit-fill{fill:inherit}.mscgenjs1f45c23c-8c4c-47cf-b4d3-367c7e8428ac .watermark{font-size:48pt;font-weight:bold;opacity:0.14}.mscgenjs1f45c23c-8c4c-47cf-b4d3-367c7e8428ac text.entity-text{text-decoration:underline;}</style><marker orient="auto" id="mscgenjs1f45c23c-8c4c-47cf-b4d3-367c7e8428accallback-black" class="arrow-marker" viewBox="0 0 10 10" refX="9" refY="3" markerUnits="strokeWidth" markerWidth="10" markerHeight="10"><path d="M 1,1 l 8,2 l-8,2" class="arrow-style" style="stroke-dasharray:100,1;stroke:black"></path></marker><marker orient="auto" id="mscgenjs1f45c23c-8c4c-47cf-b4d3-367c7e8428accallback-l-black" class="arrow-marker" viewBox="0 0 10 10" refX="9" refY="3" markerUnits="strokeWidth" markerWidth="10" markerHeight="10"><path d="M17,1 l-8,2 l 8,2" class="arrow-style" style="stroke-dasharray:100,1;stroke:black"></path></marker><marker orient="auto" id="mscgenjs1f45c23c-8c4c-47cf-b4d3-367c7e8428acmethod-black" class="arrow-marker" viewBox="0 0 10 10" refX="9" refY="3" markerUnits="strokeWidth" markerWidth="10" markerHeight="10"><polygon points="1,1  9,3  1,5" class="arrow-style" stroke="black" fill="black"></polygon></marker><marker orient="auto" id="mscgenjs1f45c23c-8c4c-47cf-b4d3-367c7e8428acmethod-l-black" class="arrow-marker" viewBox="0 0 10 10" refX="9" refY="3" markerUnits="strokeWidth" markerWidth="10" markerHeight="10"><polygon points="17,1 9,3 17,5" class="arrow-style" stroke="black" fill="black"></polygon></marker><marker orient="auto" id="mscgenjs1f45c23c-8c4c-47cf-b4d3-367c7e8428acsignal-black" class="arrow-marker" viewBox="0 0 10 10" refX="9" refY="3" markerUnits="strokeWidth" markerWidth="10" markerHeight="10"><path d="M9,3 l-8, 2" class="arrow-style" style="stroke-dasharray:100,1;stroke:black"></path></marker><marker orient="auto" id="mscgenjs1f45c23c-8c4c-47cf-b4d3-367c7e8428acsignal-u-black" class="arrow-marker" viewBox="0 0 10 10" refX="9" refY="3" markerUnits="strokeWidth" markerWidth="10" markerHeight="10"><path d="M9,3 l-8,-2" class="arrow-style" style="stroke-dasharray:100,1;stroke:black"></path></marker><marker orient="auto" id="mscgenjs1f45c23c-8c4c-47cf-b4d3-367c7e8428acsignal-l-black" class="arrow-marker" viewBox="0 0 10 10" refX="9" refY="3" markerUnits="strokeWidth" markerWidth="10" markerHeight="10"><path d="M9,3 l 8, 2" class="arrow-style" style="stroke-dasharray:100,1;stroke:black"></path></marker><marker orient="auto" id="mscgenjs1f45c23c-8c4c-47cf-b4d3-367c7e8428acsignal-lu-black" class="arrow-marker" viewBox="0 0 10 10" refX="9" refY="3" markerUnits="strokeWidth" markerWidth="10" markerHeight="10"><path d="M9,3 l 8,-2" class="arrow-style" style="stroke-dasharray:100,1;stroke:black"></path></marker></defs><g id="mscgenjs1f45c23c-8c4c-47cf-b4d3-367c7e8428ac_body" transform="translate(68,3) scale(1,1)"><g id="mscgenjs1f45c23c-8c4c-47cf-b4d3-367c7e8428ac_background"><rect width="976" height="644.36" x="-68" y="-3" class="bglayer"></rect></g><g id="mscgenjs1f45c23c-8c4c-47cf-b4d3-367c7e8428ac_arcspans"></g><g id="mscgenjs1f45c23c-8c4c-47cf-b4d3-367c7e8428ac_lifelines"><line x1="100" y1="38" x2="100" y2="76" class="arcrow"></line><line x1="420" y1="38" x2="420" y2="76" class="arcrow"></line><line x1="740" y1="38" x2="740" y2="76" class="arcrow"></line><line x1="100" y1="76" x2="100" y2="114" class="arcrow"></line><line x1="420" y1="76" x2="420" y2="114" class="arcrow"></line><line x1="740" y1="76" x2="740" y2="114" class="arcrow"></line><line x1="100" y1="114" x2="100" y2="152" class="arcrow"></line><line x1="420" y1="114" x2="420" y2="152" class="arcrow"></line><line x1="740" y1="114" x2="740" y2="152" class="arcrow"></line><line x1="100" y1="152" x2="100" y2="195.06" class="arcrow"></line><line x1="420" y1="152" x2="420" y2="195.06" class="arcrow"></line><line x1="740" y1="152" x2="740" y2="195.06" class="arcrow"></line><line x1="100" y1="195.06" x2="100" y2="238.12" class="arcrow"></line><line x1="420" y1="195.06" x2="420" y2="238.12" class="arcrow"></line><line x1="740" y1="195.06" x2="740" y2="238.12" class="arcrow"></line><line x1="100" y1="238.12" x2="100" y2="276.12" class="arcrowomit"></line><line x1="420" y1="238.12" x2="420" y2="276.12" class="arcrowomit"></line><line x1="740" y1="238.12" x2="740" y2="276.12" class="arcrowomit"></line><line x1="100" y1="276.12" x2="100" y2="319.18" class="arcrow"></line><line x1="420" y1="276.12" x2="420" y2="319.18" class="arcrow"></line><line x1="740" y1="276.12" x2="740" y2="319.18" class="arcrow"></line><line x1="100" y1="319.18" x2="100" y2="362.24" class="arcrow"></line><line x1="420" y1="319.18" x2="420" y2="362.24" class="arcrow"></line><line x1="740" y1="319.18" x2="740" y2="362.24" class="arcrow"></line><line x1="100" y1="362.24" x2="100" y2="400.24" class="arcrow"></line><line x1="420" y1="362.24" x2="420" y2="400.24" class="arcrow"></line><line x1="740" y1="362.24" x2="740" y2="400.24" class="arcrow"></line><line x1="100" y1="400.24" x2="100" y2="438.24" class="arcrow"></line><line x1="420" y1="400.24" x2="420" y2="438.24" class="arcrow"></line><line x1="740" y1="400.24" x2="740" y2="438.24" class="arcrow"></line><line x1="100" y1="438.24" x2="100" y2="481.3" class="arcrow"></line><line x1="420" y1="438.24" x2="420" y2="481.3" class="arcrow"></line><line x1="740" y1="438.24" x2="740" y2="481.3" class="arcrow"></line><line x1="100" y1="481.3" x2="100" y2="519.3" class="arcrow"></line><line x1="420" y1="481.3" x2="420" y2="519.3" class="arcrow"></line><line x1="740" y1="481.3" x2="740" y2="519.3" class="arcrow"></line><line x1="100" y1="519.3" x2="100" y2="557.3" class="arcrow"></line><line x1="420" y1="519.3" x2="420" y2="557.3" class="arcrow"></line><line x1="740" y1="519.3" x2="740" y2="557.3" class="arcrow"></line><line x1="100" y1="557.3" x2="100" y2="600.36" class="arcrow"></line><line x1="420" y1="557.3" x2="420" y2="600.36" class="arcrow"></line><line x1="740" y1="557.3" x2="740" y2="600.36" class="arcrow"></line><line x1="100" y1="600.36" x2="100" y2="638.36" class="arcrow"></line><line x1="420" y1="600.36" x2="420" y2="638.36" class="arcrow"></line><line x1="740" y1="600.36" x2="740" y2="638.36" class="arcrow"></line></g><g id="mscgenjs1f45c23c-8c4c-47cf-b4d3-367c7e8428ac_sequence"><g><g><rect width="200" height="38" class="entity"></rect><g><text x="100" y="22.75" class="entity-text "><tspan>a</tspan></text></g></g><g><rect width="200" height="38" x="320" class="entity"></rect><g><text x="420" y="22.75" class="entity-text "><tspan>b</tspan></text></g></g><g><rect width="200" height="38" x="640" class="entity"></rect><g><text x="740" y="22.75" class="entity-text "><tspan>c</tspan></text></g></g></g><g><line x1="100" y1="95" x2="420" y2="95" class="arc directional signal" style="stroke:black" marker-end="url(#mscgenjs1f45c23c-8c4c-47cf-b4d3-367c7e8428acsignal-black)"></line><g><rect width="21.34" height="14" x="249.33" y="79.25" class="label-text-background"></rect><text x="260" y="90.25" class="directional-text signal-text "><tspan>ab()</tspan></text></g></g><g><line x1="420" y1="133" x2="740" y2="133" class="arc directional signal" style="stroke:black" marker-end="url(#mscgenjs1f45c23c-8c4c-47cf-b4d3-367c7e8428acsignal-black)"></line><g><rect width="53.33" height="14" x="553.33" y="117.25" class="label-text-background"></rect><text x="580" y="128.25" class="directional-text signal-text "><tspan>bc(TRUE)</tspan></text></g></g><g><path d="M740,165.93 C900,166.03 900,188.73 740,188.73 " class="arc directional method" style="stroke:black" marker-end="url(#mscgenjs1f45c23c-8c4c-47cf-b4d3-367c7e8428acmethod-black)"></path><g><rect width="56.69" height="14" x="743" y="149.67" class="label-text-background"></rect><text x="743" y="160.68" class="directional-text method-text anchor-start "><tspan>process(1)</tspan></text></g></g><g><path d="M740,208.99 C900,209.09 900,231.79 740,231.79 " class="arc directional method" style="stroke:black" marker-end="url(#mscgenjs1f45c23c-8c4c-47cf-b4d3-367c7e8428acmethod-black)"></path><g><rect width="56.69" height="14" x="743" y="192.73" class="label-text-background"></rect><text x="743" y="203.74" class="directional-text method-text anchor-start "><tspan>process(2)</tspan></text></g></g><g></g><g><path d="M740,290.05 C900,290.15 900,312.85 740,312.85 " class="arc directional method" style="stroke:black" marker-end="url(#mscgenjs1f45c23c-8c4c-47cf-b4d3-367c7e8428acmethod-black)"></path><g><rect width="56.69" height="14" x="743" y="273.8" class="label-text-background"></rect><text x="743" y="284.8" class="directional-text method-text anchor-start "><tspan>process(n)</tspan></text></g></g><g><path d="M740,333.11 C900,333.21 900,355.91 740,355.91 " class="arc directional method" style="stroke:black" marker-end="url(#mscgenjs1f45c23c-8c4c-47cf-b4d3-367c7e8428acmethod-black)"></path><g><rect width="75.34" height="14" x="743" y="316.86" class="label-text-background"></rect><text x="743" y="327.86" class="directional-text method-text anchor-start "><tspan>process(END)</tspan></text></g></g><g><line x1="740" y1="381.24" x2="100" y2="381.24" class="arc directional callback" style="stroke:black" marker-end="url(#mscgenjs1f45c23c-8c4c-47cf-b4d3-367c7e8428accallback-black)"></line><g><rect width="51.34" height="14" x="394.31" y="365.48" class="label-text-background"></rect><text x="420" y="376.49" class="directional-text callback-text "><tspan>callback()</tspan></text></g></g><g><line x1="0" y1="419.24" x2="840" y2="419.24" class="comment"></line><g><rect width="81.59" height="14" x="379.19" y="411.98" class="label-text-background"></rect><text x="420" y="422.99" class="empty-text comment-row-text "><tspan>If more to run</tspan><tspan style="vertical-align:text-top;font-size:0.7em;text-anchor:start;"> [*]</tspan></text></g></g><g><path d="M100,452.17 C260,452.27 260,474.97 100,474.97 " class="arc directional signal" style="stroke:black" marker-end="url(#mscgenjs1f45c23c-8c4c-47cf-b4d3-367c7e8428acsignal-u-black)"></path><g><rect width="30.67" height="14" x="103" y="435.91" class="label-text-background"></rect><text x="103" y="446.92" class="directional-text signal-text anchor-start "><tspan>next()</tspan></text></g></g><g><line x1="100" y1="500.3" x2="740" y2="500.3" class="arc directional signal" style="stroke:black" marker-end="url(#mscgenjs1f45c23c-8c4c-47cf-b4d3-367c7e8428acsignal-black)"></line><g><rect width="27.34" height="14" x="406.33" y="484.55" class="label-text-background"></rect><text x="420" y="495.55" class="directional-text signal-text "><tspan>ac1()</tspan></text><rect width="27.34" height="14" x="406.33" y="502.55" class="label-text-background"></rect><text x="420" y="513.55" class="directional-text signal-text "><tspan>ac2()</tspan></text></g></g><g><line x1="740" y1="538.3" x2="420" y2="538.3" class="arc directional signal" style="stroke:black" marker-end="url(#mscgenjs1f45c23c-8c4c-47cf-b4d3-367c7e8428acsignal-u-black)"></line><g><rect width="53.33" height="14" x="553.33" y="522.55" class="label-text-background"></rect><text x="580" y="533.55" class="directional-text signal-text "><tspan>cb(TRUE)</tspan></text></g></g><g><path d="M420,571.23 C580,571.33 580,594.03 420,594.03 " class="arc directional signal" style="stroke:black" marker-end="url(#mscgenjs1f45c23c-8c4c-47cf-b4d3-367c7e8428acsignal-u-black)"></path><g><rect width="52.67" height="14" x="423" y="554.97" class="label-text-background"></rect><text x="423" y="565.98" class="directional-text signal-text anchor-start "><tspan>stalled(...)</tspan></text></g></g><g><line x1="420" y1="619.36" x2="100" y2="619.36" class="arc directional signal" style="stroke:black" marker-end="url(#mscgenjs1f45c23c-8c4c-47cf-b4d3-367c7e8428acsignal-u-black)"></line><g><rect width="72.36" height="14" x="223.81" y="603.61" class="label-text-background"></rect><text x="260" y="614.61" class="directional-text signal-text "><tspan>ab() = FALSE</tspan></text></g></g></g><g id="mscgenjs1f45c23c-8c4c-47cf-b4d3-367c7e8428ac_notes"></g><g id="mscgenjs1f45c23c-8c4c-47cf-b4d3-367c7e8428ac_watermark"></g></g></svg>